<svg xmlns="http://www.w3.org/2000/svg" width="78" height="66" fill="none" viewBox="0 0 78 66">
  <path fill="#fff" d="M5.126 50.759c0 .545.443.988.988.988h65.773a.987.987 0 1 0 0-1.976H6.114a.989.989 0 0 0-.988.988Z"/>
  <path fill="#fff" d="M70.874 16.899a.979.979 0 0 0-.98-.98h-8.826V1.043a.98.98 0 0 0-.982-.981H17.913a.98.98 0 0 0-.98.981v14.875H8.105a.98.98 0 0 0-.98.98L.607 50.724l1.518 14.232a.98.98 0 0 0 .98.981h71.789c.543 0 .98-.438.98-.981l1.52-14.236-6.52-33.821Zm-51.98.981V2.024h40.211l-.021 33.289-40.189.016V17.88h-.001Zm55.314 46.096H3.958L2.524 50.722 9.086 17.88h7.846v12.959h-2.99l.018.015a.974.974 0 0 0-.654.281.988.988 0 0 0 0 1.396l3.611 4.902h44.041l4.061-4.902a.986.986 0 0 0 0-1.396.971.971 0 0 0-.77-.274l.021-.021h-3.203V17.88h7.846l6.574 32.949-1.279 13.147Z"/>
  <path fill="#fff" d="m43.032 14.948-3.001 2.999-4.406 4.406-4.093-4.095-2.121 2.12 6.214 6.216 4.406-4.405 3.001-3 5.559-5.559-2.121-2.121-3.438 3.439Z"/>
</svg>
